<svg width="160" height="35" viewBox="0 0 160 35" fill="none" xmlns="http://www.w3.org/2000/svg">
<path fill-rule="evenodd" clip-rule="evenodd" d="M0 13.5431C0 21.0086 6.1394 27.0862 13.6809 27.0862C21.2224 27.0862 27.3617 21.0086 27.3617 13.5431C27.3617 6.07759 21.2224 0 13.6809 0C6.1394 0 0 6.07759 0 13.5431ZM2.17709 13.5431C2.17709 7.25862 7.33246 2.15518 13.6809 2.15518C20.0206 2.15518 25.1846 7.26725 25.1846 13.5431C25.1846 19.819 20.0206 24.931 13.6809 24.931C7.34117 24.931 2.17709 19.8276 2.17709 13.5431Z" fill="#003097"/>
<path d="M8.10677 19.0778L6.0516 18.1036L6.07771 17.7502L8.64669 17.7847C8.64669 17.7847 9.9094 16.0519 10.5799 15.2071C11.2505 14.3709 12.1214 13.3451 12.1214 13.3451L5.03271 10.2502L5.46814 9.81916L14.4465 11.0175C14.4465 11.0175 17.0416 8.34503 17.9647 7.56917C18.3391 7.25882 19.6628 6.42261 20.2201 6.96572L20.2811 7.02606C20.8384 7.56916 19.9938 8.88813 19.6889 9.25881C18.9138 10.1812 16.2316 12.776 16.2316 12.776L17.5118 21.6554L17.0764 22.0864L13.8979 15.0864C13.8979 15.0864 12.8702 15.9571 12.0342 16.6295C11.1896 17.3019 9.44787 18.5691 9.44787 18.5691L9.50011 21.1123L9.14307 21.1381L8.1416 19.1122L8.10677 19.0778Z" fill="#003097"/>
<path d="M13.6813 34.9999C12.3141 34.9999 10.9382 34.8706 9.57091 34.6033C8.97873 34.4912 8.59557 33.9223 8.70878 33.3447C8.82198 32.7585 9.39674 32.3792 9.9802 32.4913C12.4359 32.9654 14.9179 32.9654 17.3736 32.4913C17.9658 32.3792 18.5318 32.7585 18.645 33.3447C18.7583 33.9309 18.3751 34.4912 17.7829 34.6033C16.4244 34.8706 15.0484 34.9999 13.6813 34.9999Z" fill="#003097"/>
<path d="M13.6812 31.0433C11.8177 31.0433 9.96277 30.7501 8.17754 30.1725C7.61151 29.9829 7.298 29.3794 7.48088 28.8105C7.67247 28.2502 8.28205 27.9398 8.8568 28.1208C11.9831 29.138 15.3707 29.138 18.497 28.1208C19.0718 27.9398 19.6813 28.2415 19.8729 28.8105C20.0645 29.3708 19.751 29.9829 19.1763 30.1725C17.3997 30.7501 15.5448 31.0433 13.6812 31.0433Z" fill="#003097"/>
<path d="M37.9343 10.5605V8.20703H51.5542V10.5605H46.0766V26.4312H43.4119V10.5605H37.9343Z" fill="#003097"/>
<path d="M51.8846 26.4313V13.5778H54.3927V15.3881C55.1677 14.1123 56.3085 13.4829 57.8412 13.4829C58.1198 13.4829 58.4159 13.5089 58.7381 13.5605V16.095C58.4856 16.0606 58.2766 16.0347 58.0938 16.0174C57.9109 16.0002 57.7716 15.9916 57.6583 15.9916C56.413 15.9916 55.4986 16.4571 54.9239 17.3881C54.8455 17.5347 54.7758 17.6898 54.7149 17.8537C54.6539 18.0175 54.6017 18.1899 54.5581 18.3622C54.5145 18.5346 54.4797 18.6984 54.4623 18.8623C54.4449 19.0174 54.4275 19.164 54.4188 19.2847C54.41 19.4053 54.4014 19.5519 54.4014 19.7243C54.4014 19.8968 54.3927 20.095 54.3927 20.3191V26.4398H51.8846V26.4313Z" fill="#003097"/>
<path fill-rule="evenodd" clip-rule="evenodd" d="M60.429 17.4482C60.1678 18.2499 60.0459 19.0947 60.0459 19.9654C60.0459 20.8188 60.1678 21.6551 60.4378 22.474C60.6903 23.293 61.0648 24.0257 61.5611 24.6636C62.0575 25.3016 62.667 25.8188 63.3898 26.2067C64.1214 26.5947 64.9574 26.793 65.9066 26.793C66.8296 26.793 67.6395 26.6464 68.3362 26.3706C69.0329 26.0861 69.6599 25.6119 70.226 24.9309V26.4223H72.6904V13.5688H70.226V15.0947C69.2593 13.8447 67.8137 13.2153 65.9066 13.2153C64.9835 13.2153 64.1475 13.4051 63.3986 13.7757C62.6497 14.155 62.0314 14.6551 61.5437 15.293C61.0561 15.9309 60.6816 16.6464 60.429 17.4482ZM62.6148 19.5947C62.6409 19.1637 62.7106 18.7499 62.8326 18.3533C62.9458 17.9653 63.1025 17.6033 63.2853 17.2671C63.4857 16.9309 63.7295 16.6378 64.0081 16.3878C64.2869 16.1378 64.6177 15.9395 65.0009 15.793C65.384 15.6464 65.8195 15.5774 66.3072 15.5774C66.9516 15.5774 67.5176 15.6895 68.0053 15.9309C68.493 16.1637 68.9022 16.4826 69.2332 16.8878C69.5641 17.2929 69.8079 17.7671 69.9734 18.3016C70.1388 18.8447 70.2172 19.4136 70.2085 20.0257C70.2085 21.2929 69.8776 22.3447 69.2071 23.1809C68.5279 24.0257 67.5699 24.4482 66.3159 24.4482C65.6889 24.4482 65.1402 24.3274 64.6525 24.0775C64.1649 23.8361 63.7731 23.4999 63.4857 23.0774C63.2592 22.7843 63.0851 22.4481 62.9458 22.0602C62.8064 21.6723 62.7106 21.2757 62.6584 20.8619C62.6061 20.4481 62.5886 20.0257 62.6148 19.5947Z" fill="#003097"/>
<path d="M74.9093 13.5776H77.574L80.7874 22.7758L83.9137 13.5776H86.5001L81.8498 26.4311H79.664L74.9093 13.5776Z" fill="#003097"/>
<path fill-rule="evenodd" clip-rule="evenodd" d="M87.8761 18.0516C87.7454 18.6206 87.6758 19.2327 87.6758 19.8878C87.6758 22.0171 88.2506 23.6981 89.3914 24.9222C90.5322 26.1637 92.091 26.7843 94.0417 26.7843C94.4684 26.7843 94.869 26.7498 95.2608 26.6895C95.6527 26.6205 96.0794 26.4999 96.541 26.3102C97.1941 26.0516 97.8037 25.6378 98.3697 25.0688C98.9358 24.4912 99.4234 23.7068 99.824 22.7067H97.1854C97.0548 22.9912 96.8893 23.2412 96.6803 23.4654C96.4799 23.6895 96.2449 23.8791 95.9836 24.043C95.7223 24.2068 95.435 24.3274 95.1215 24.4137C94.808 24.4998 94.4857 24.543 94.1549 24.543C92.988 24.543 92.0996 24.2068 91.4901 23.5257C90.7586 22.7327 90.3842 21.7326 90.358 20.5257H99.9459V20.2498C99.9459 19.2757 99.8676 18.4481 99.7021 17.7671C99.5018 16.9481 99.197 16.2326 98.7877 15.6292C98.3784 15.0258 97.8994 14.5516 97.3595 14.2068C96.8196 13.8533 96.271 13.6033 95.705 13.4481C95.1389 13.2929 94.5641 13.2153 93.972 13.2153C93.3275 13.2153 92.7092 13.3016 92.1084 13.474C91.5075 13.6378 90.9414 13.9137 90.4015 14.2844C90.0009 14.5516 89.6352 14.8619 89.3042 15.2326C88.9734 15.6033 88.6859 16.0171 88.4421 16.4912C88.1983 16.9654 88.0067 17.4827 87.8761 18.0516ZM96.1665 16.3188C96.8022 16.9051 97.1505 17.6895 97.2114 18.6636H90.4363C90.567 17.7068 90.9589 16.9309 91.6033 16.3361C92.2303 15.7498 92.9967 15.4568 93.8936 15.4568C94.7731 15.4568 95.5308 15.7412 96.1665 16.3188Z" fill="#003097"/>
<path fill-rule="evenodd" clip-rule="evenodd" d="M108.429 8.20703V26.4312H111.059V20.0173H115.796C116.902 20.0173 117.921 19.7674 118.853 19.276C119.785 18.776 120.525 18.0691 121.091 17.1639C121.649 16.2501 121.927 15.2328 121.927 14.0949C121.927 12.957 121.649 11.9312 121.091 11.026C120.812 10.5691 120.481 10.1639 120.098 9.8191C119.715 9.46565 119.306 9.17255 118.853 8.93117C118.4 8.68979 117.921 8.50875 117.398 8.38806C116.876 8.26738 116.345 8.20703 115.796 8.20703H108.429ZM115.744 17.6553H111.059V10.5863H115.744C116.816 10.5863 117.686 10.9139 118.365 11.5691C119.036 12.2243 119.367 13.0691 119.367 14.1036C119.367 15.1467 119.036 16.0002 118.365 16.6639C117.695 17.3277 116.824 17.6553 115.744 17.6553Z" fill="#003097"/>
<path fill-rule="evenodd" clip-rule="evenodd" d="M122.929 18.0516C122.798 18.6206 122.728 19.2327 122.728 19.8878C122.728 22.0171 123.304 23.6981 124.444 24.9222C125.585 26.1637 127.143 26.7843 129.094 26.7843C129.521 26.7843 129.921 26.7498 130.314 26.6895C130.705 26.6205 131.132 26.4999 131.594 26.3102C132.246 26.0516 132.857 25.6378 133.423 25.0688C133.989 24.4912 134.476 23.7068 134.876 22.7067H132.238C132.108 22.9912 131.942 23.2412 131.733 23.4654C131.532 23.6895 131.297 23.8791 131.036 24.043C130.775 24.2068 130.487 24.3274 130.174 24.4137C129.861 24.4998 129.538 24.543 129.207 24.543C128.04 24.543 127.152 24.2068 126.543 23.5257C125.812 22.7327 125.437 21.7326 125.411 20.5257H134.999V20.2498C134.999 19.2757 134.92 18.4481 134.754 17.7671C134.554 16.9481 134.25 16.2326 133.84 15.6292C133.431 15.0258 132.952 14.5516 132.412 14.2068C131.872 13.8533 131.324 13.6033 130.758 13.4481C130.191 13.2929 129.617 13.2153 129.024 13.2153C128.38 13.2153 127.762 13.3016 127.161 13.474C126.561 13.6378 125.994 13.9137 125.454 14.2844C125.053 14.5516 124.688 14.8619 124.357 15.2326C124.026 15.6033 123.738 16.0171 123.495 16.4912C123.251 16.9654 123.059 17.4827 122.929 18.0516ZM131.228 16.3188C131.863 16.9051 132.211 17.6895 132.273 18.6636H125.497C125.629 17.7068 126.02 16.9309 126.664 16.3361C127.292 15.7498 128.057 15.4568 128.954 15.4568C129.835 15.4568 130.592 15.7412 131.228 16.3188Z" fill="#003097"/>
<path d="M138.001 26.4313V13.5778H140.509V15.3881C141.284 14.1123 142.425 13.4829 143.958 13.4829C144.236 13.4829 144.532 13.5089 144.855 13.5605V16.095C144.602 16.0606 144.393 16.0347 144.211 16.0174C144.028 16.0002 143.888 15.9916 143.775 15.9916C142.53 15.9916 141.615 16.4571 141.04 17.3881C140.962 17.5347 140.892 17.6898 140.831 17.8537C140.771 18.0175 140.718 18.1899 140.674 18.3622C140.631 18.5346 140.596 18.6984 140.579 18.8623C140.561 19.0174 140.544 19.164 140.535 19.2847C140.526 19.4053 140.518 19.5519 140.518 19.7243C140.518 19.8968 140.509 20.095 140.509 20.3191V26.4398H138.001V26.4313Z" fill="#003097"/>
<path d="M147.216 26.4312V8.20703H149.724V18.6898L154.854 13.5778H158.119L152.066 19.4915L158.224 26.4312H154.749L149.724 20.5863V26.4312H147.216Z" fill="#003097"/>
<path d="M102.942 23.8795C102.942 24.7242 103.187 25.3708 103.674 25.8278C104.109 26.2415 104.701 26.4657 105.45 26.5087V22.9312V16.164V8.20703H102.942V23.8795Z" fill="#003097"/>
</svg>
