<svg width="182" height="40" viewBox="0 0 182 40" fill="none" xmlns="http://www.w3.org/2000/svg">
<path fill-rule="evenodd" clip-rule="evenodd" d="M0 15.4779C0 24.0099 7.01646 30.9556 15.6353 30.9556C24.2541 30.9556 31.2705 24.0099 31.2705 15.4779C31.2705 6.94581 24.2541 0 15.6353 0C7.01646 0 0 6.94581 0 15.4779ZM2.4881 15.4779C2.4881 8.29556 8.37995 2.46306 15.6353 2.46306C22.8807 2.46306 28.7824 8.30542 28.7824 15.4779C28.7824 22.6502 22.8807 28.4926 15.6353 28.4926C8.38991 28.4926 2.4881 22.6601 2.4881 15.4779Z" fill="white"/>
<path d="M9.26493 21.8029L6.91615 20.6896L6.946 20.2858L9.88198 20.3252C9.88198 20.3252 11.3251 18.3448 12.0914 17.3793C12.8578 16.4236 13.853 15.2513 13.853 15.2513L5.75172 11.7143L6.24934 11.2217L16.5103 12.5912C16.5103 12.5912 19.4761 9.53695 20.5311 8.65026C20.959 8.29558 22.4718 7.3399 23.1087 7.9606L23.1785 8.02956C23.8153 8.65025 22.85 10.1576 22.5017 10.5813C21.6158 11.6355 18.5505 14.6009 18.5505 14.6009L20.0135 24.7488L19.5159 25.2414L15.8833 17.2414C15.8833 17.2414 14.7089 18.2365 13.7534 19.0049C12.7881 19.7734 10.7976 21.2216 10.7976 21.2216L10.8573 24.1281L10.4493 24.1576L9.30473 21.8424L9.26493 21.8029Z" fill="white"/>
<path d="M15.6357 40C14.0732 40 12.5007 39.8522 10.9381 39.5468C10.2614 39.4187 9.82345 38.7685 9.95284 38.1083C10.0822 37.4385 10.7391 37.0049 11.4059 37.1331C14.2124 37.6749 17.0489 37.6749 19.8555 37.1331C20.5323 37.0049 21.1792 37.4385 21.3086 38.1083C21.438 38.7783 21.0001 39.4187 20.3233 39.5468C18.7707 39.8522 17.1982 40 15.6357 40Z" fill="white"/>
<path d="M15.6357 35.4779C13.5059 35.4779 11.386 35.1428 9.34578 34.4827C8.69889 34.266 8.34059 33.5763 8.5496 32.9261C8.76855 32.2858 9.46522 31.9311 10.1221 32.1379C13.695 33.3005 17.5665 33.3005 21.1395 32.1379C21.7963 31.9311 22.493 32.2759 22.712 32.9261C22.9308 33.5665 22.5726 34.266 21.9157 34.4827C19.8854 35.1428 17.7655 35.4779 15.6357 35.4779Z" fill="white"/>
<path d="M43.3535 12.0689V9.37932H58.919V12.0689H52.6589V30.2069H49.6136V12.0689H43.3535Z" fill="white"/>
<path d="M59.2968 30.2069V15.5173H62.1631V17.5862C63.0488 16.1281 64.3526 15.4088 66.1043 15.4088C66.4227 15.4088 66.7611 15.4385 67.1294 15.4975V18.3941C66.8407 18.3547 66.6019 18.3252 66.3929 18.3054C66.1839 18.2858 66.0247 18.2759 65.8953 18.2759C64.472 18.2759 63.427 18.8079 62.7702 19.8719C62.6806 20.0394 62.601 20.2167 62.5313 20.404C62.4617 20.5912 62.4019 20.7882 62.3522 20.9852C62.3024 21.1822 62.2626 21.3694 62.2427 21.5567C62.2228 21.734 62.2029 21.9015 62.1929 22.0394C62.183 22.1773 62.1731 22.3448 62.1731 22.5419C62.1731 22.7389 62.1631 22.9655 62.1631 23.2216V30.2167H59.2968V30.2069Z" fill="white"/>
<path fill-rule="evenodd" clip-rule="evenodd" d="M69.0617 19.9409C68.7631 20.8572 68.6239 21.8227 68.6239 22.8178C68.6239 23.7931 68.7631 24.7488 69.0717 25.6847C69.3603 26.6207 69.7883 27.4581 70.3556 28.1872C70.9228 28.9162 71.6195 29.5074 72.4455 29.9507C73.2815 30.3941 74.237 30.6207 75.3218 30.6207C76.3767 30.6207 77.3023 30.4532 78.0986 30.138C78.8948 29.8128 79.6113 29.2709 80.2582 28.4926V30.1971H83.0748V15.5074H80.2582V17.2513C79.1534 15.8227 77.5014 15.1034 75.3218 15.1034C74.2668 15.1034 73.3114 15.3202 72.4555 15.7439C71.5996 16.1773 70.893 16.7488 70.3356 17.4779C69.7783 18.2069 69.3503 19.0246 69.0617 19.9409ZM71.5598 22.3941C71.5896 21.9015 71.6693 21.4286 71.8086 20.9754C71.938 20.532 72.1171 20.1182 72.3261 19.734C72.5551 19.3498 72.8337 19.0148 73.1521 18.7291C73.4707 18.4434 73.8488 18.2167 74.2868 18.0493C74.7246 17.8818 75.2222 17.8029 75.7796 17.8029C76.5161 17.8029 77.1629 17.9311 77.7203 18.2069C78.2777 18.4729 78.7454 18.8374 79.1236 19.3005C79.5018 19.7635 79.7805 20.3054 79.9696 20.9162C80.1587 21.5369 80.2483 22.1872 80.2383 22.8867C80.2383 24.3349 79.8601 25.5369 79.0938 26.4926C78.3175 27.4581 77.2227 27.9409 75.7896 27.9409C75.073 27.9409 74.446 27.8029 73.8886 27.5173C73.3313 27.2414 72.8835 26.8572 72.5551 26.3743C72.2963 26.0394 72.0972 25.6552 71.938 25.2119C71.7787 24.7685 71.6693 24.3153 71.6096 23.8424C71.5498 23.3694 71.5299 22.8867 71.5598 22.3941Z" fill="white"/>
<path d="M85.6107 15.5173H88.6561L92.3285 26.0295L95.9014 15.5173H98.8574L93.5427 30.2069H91.0446L85.6107 15.5173Z" fill="white"/>
<path fill-rule="evenodd" clip-rule="evenodd" d="M100.43 20.6306C100.28 21.2808 100.201 21.9804 100.201 22.7291C100.201 25.1626 100.858 27.0838 102.162 28.4827C103.465 29.9015 105.247 30.6108 107.476 30.6108C107.964 30.6108 108.422 30.5714 108.869 30.5025C109.317 30.4236 109.805 30.2858 110.333 30.0689C111.079 29.7734 111.776 29.3005 112.422 28.6502C113.069 27.9901 113.627 27.0936 114.085 25.9507H111.069C110.92 26.2759 110.731 26.5615 110.492 26.8178C110.263 27.0739 109.994 27.2906 109.696 27.4779C109.397 27.6651 109.068 27.8029 108.71 27.9015C108.352 28 107.984 28.0493 107.606 28.0493C106.272 28.0493 105.257 27.6651 104.56 26.8867C103.724 25.9804 103.296 24.8374 103.266 23.4581H114.224V23.1428C114.224 22.0295 114.134 21.0838 113.945 20.3054C113.716 19.3694 113.368 18.5518 112.9 17.8621C112.432 17.1725 111.885 16.6306 111.268 16.2365C110.651 15.8325 110.024 15.5468 109.377 15.3694C108.73 15.1921 108.073 15.1034 107.397 15.1034C106.66 15.1034 105.953 15.202 105.267 15.3991C104.58 15.5862 103.933 15.9015 103.316 16.3252C102.858 16.6306 102.44 16.9852 102.062 17.4088C101.684 17.8325 101.355 18.3054 101.077 18.8473C100.798 19.3892 100.579 19.9804 100.43 20.6306ZM109.905 18.6502C110.631 19.3202 111.029 20.2167 111.099 21.33H103.356C103.505 20.2365 103.953 19.3498 104.689 18.67C105.406 18 106.282 17.6651 107.307 17.6651C108.312 17.6651 109.178 17.9901 109.905 18.6502Z" fill="white"/>
<path fill-rule="evenodd" clip-rule="evenodd" d="M123.919 9.37932V30.2069H126.924V22.8768H132.339C133.602 22.8768 134.767 22.5912 135.832 22.0295C136.897 21.4581 137.742 20.6502 138.389 19.6158C139.027 18.5714 139.345 17.4088 139.345 16.1084C139.345 14.8079 139.027 13.6355 138.389 12.6009C138.071 12.0788 137.693 11.6158 137.255 11.2217C136.817 10.8177 136.35 10.4828 135.832 10.2069C135.314 9.93105 134.767 9.72414 134.169 9.58621C133.573 9.44828 132.966 9.37932 132.339 9.37932H123.919ZM132.279 20.1773H126.924V12.0985H132.279C133.503 12.0985 134.498 12.4729 135.274 13.2216C136.041 13.9705 136.419 14.936 136.419 16.1182C136.419 17.3104 136.041 18.2858 135.274 19.0444C134.509 19.8029 133.513 20.1773 132.279 20.1773Z" fill="white"/>
<path fill-rule="evenodd" clip-rule="evenodd" d="M140.49 20.6306C140.341 21.2808 140.261 21.9804 140.261 22.7291C140.261 25.1626 140.918 27.0838 142.222 28.4827C143.525 29.9015 145.306 30.6108 147.536 30.6108C148.024 30.6108 148.481 30.5714 148.93 30.5025C149.377 30.4236 149.865 30.2858 150.393 30.0689C151.139 29.7734 151.836 29.3005 152.483 28.6502C153.13 27.9901 153.687 27.0936 154.145 25.9507H151.129C150.98 26.2759 150.791 26.5615 150.552 26.8178C150.323 27.0739 150.054 27.2906 149.755 27.4779C149.457 27.6651 149.128 27.8029 148.77 27.9015C148.412 28 148.043 28.0493 147.665 28.0493C146.332 28.0493 145.317 27.6651 144.621 26.8867C143.785 25.9804 143.356 24.8374 143.327 23.4581H154.284V23.1428C154.284 22.0295 154.194 21.0838 154.005 20.3054C153.776 19.3694 153.428 18.5518 152.96 17.8621C152.493 17.1725 151.945 16.6306 151.328 16.2365C150.711 15.8325 150.084 15.5468 149.437 15.3694C148.79 15.1921 148.134 15.1034 147.456 15.1034C146.72 15.1034 146.013 15.202 145.326 15.3991C144.641 15.5862 143.994 15.9015 143.376 16.3252C142.918 16.6306 142.5 16.9852 142.122 17.4088C141.744 17.8325 141.415 18.3054 141.137 18.8473C140.859 19.3892 140.639 19.9804 140.49 20.6306ZM149.975 18.6502C150.701 19.3202 151.099 20.2167 151.169 21.33H143.425C143.576 20.2365 144.023 19.3498 144.759 18.67C145.477 18 146.351 17.6651 147.377 17.6651C148.383 17.6651 149.248 17.9901 149.975 18.6502Z" fill="white"/>
<path d="M157.715 30.2069V15.5173H160.582V17.5862C161.468 16.1281 162.771 15.4088 164.523 15.4088C164.842 15.4088 165.18 15.4385 165.548 15.4975V18.3941C165.26 18.3547 165.021 18.3252 164.812 18.3054C164.603 18.2858 164.443 18.2759 164.314 18.2759C162.891 18.2759 161.846 18.8079 161.189 19.8719C161.099 20.0394 161.02 20.2167 160.95 20.404C160.881 20.5912 160.821 20.7882 160.771 20.9852C160.721 21.1822 160.681 21.3694 160.661 21.5567C160.641 21.734 160.621 21.9015 160.612 22.0394C160.601 22.1773 160.592 22.3448 160.592 22.5419C160.592 22.7389 160.582 22.9655 160.582 23.2216V30.2167H157.715V30.2069Z" fill="white"/>
<path d="M168.247 30.2069V9.37932H171.113V21.3596L176.976 15.5173H180.707L173.79 22.2759L180.827 30.2069H176.856L171.113 23.5271V30.2069H168.247Z" fill="white"/>
<path d="M117.648 27.2907C117.648 28.2561 117.928 28.9951 118.484 29.5173C118.982 29.9901 119.659 30.2464 120.515 30.2955V26.2069V18.4729V9.37932H117.648V27.2907Z" fill="white"/>
</svg>
